<svg width="354" height="77" viewBox="0 0 354 77" fill="none" xmlns="http://www.w3.org/2000/svg">
<path d="M6.91414e-06 23.2727V-2.28882e-05H15.6818V4.0568H4.92046V9.60225H14.875V13.6591H4.92046V19.2159H15.7273V23.2727H6.91414e-06ZM24.3438 -2.28882e-05V23.2727H19.5028V-2.28882e-05H24.3438ZM36.1761 23.6136C34.3807 23.6136 32.8352 23.25 31.5398 22.5227C30.2519 21.7879 29.2595 20.75 28.5625 19.4091C27.8655 18.0606 27.5171 16.4659 27.5171 14.625C27.5171 12.8295 27.8655 11.2538 28.5625 9.89771C29.2595 8.54164 30.2405 7.48483 31.5057 6.72725C32.7784 5.96967 34.2708 5.59089 35.983 5.59089C37.1345 5.59089 38.2064 5.77649 39.1989 6.14771C40.1989 6.51134 41.0701 7.06058 41.8125 7.79543C42.5625 8.53028 43.1458 9.45452 43.5625 10.5682C43.9792 11.6742 44.1875 12.9697 44.1875 14.4545V15.7841H29.4489V12.7841H39.6307C39.6307 12.0871 39.4792 11.4697 39.1761 10.9318C38.8731 10.3939 38.4527 9.97346 37.9148 9.67043C37.3845 9.35983 36.7671 9.20452 36.0625 9.20452C35.3277 9.20452 34.6761 9.37498 34.108 9.71589C33.5474 10.0492 33.108 10.5 32.7898 11.0682C32.4716 11.6288 32.3087 12.2538 32.3011 12.9432V15.7954C32.3011 16.6591 32.4602 17.4053 32.7784 18.0341C33.1042 18.6629 33.5625 19.1477 34.1534 19.4886C34.7443 19.8295 35.4451 20 36.2557 20C36.7936 20 37.286 19.9242 37.733 19.7727C38.1799 19.6212 38.5625 19.3939 38.8807 19.0909C39.1989 18.7879 39.4413 18.4166 39.608 17.9773L44.0852 18.2727C43.858 19.3485 43.3921 20.2879 42.6875 21.0909C41.9905 21.8863 41.089 22.5076 39.983 22.9545C38.8845 23.3939 37.6155 23.6136 36.1761 23.6136ZM63.1506 5.81816L57.0483 23.2727H51.5938L45.4915 5.81816H50.6051L54.2301 18.3068H54.4119L58.0256 5.81816H63.1506ZM70.1364 23.6023C69.0227 23.6023 68.0303 23.4091 67.1591 23.0227C66.2879 22.6288 65.5985 22.0492 65.0909 21.2841C64.5909 20.5113 64.3409 19.5492 64.3409 18.3977C64.3409 17.428 64.5189 16.6136 64.875 15.9545C65.2311 15.2954 65.7159 14.7651 66.3296 14.3636C66.9432 13.9621 67.6402 13.6591 68.4205 13.4545C69.2083 13.25 70.0341 13.106 70.8977 13.0227C71.9129 12.9166 72.7311 12.8182 73.3523 12.7273C73.9735 12.6288 74.4242 12.4848 74.7046 12.2954C74.9849 12.106 75.125 11.8257 75.125 11.4545V11.3863C75.125 10.6666 74.8977 10.1098 74.4432 9.71589C73.9962 9.32195 73.3599 9.12498 72.5341 9.12498C71.6629 9.12498 70.9697 9.31816 70.4546 9.70452C69.9394 10.0833 69.5985 10.5606 69.4318 11.1363L64.9546 10.7727C65.1818 9.7121 65.6288 8.79543 66.2955 8.02271C66.9621 7.2424 67.822 6.64392 68.875 6.22725C69.9356 5.80301 71.1629 5.59089 72.5568 5.59089C73.5265 5.59089 74.4546 5.70452 75.3409 5.9318C76.2349 6.15907 77.0265 6.51134 77.7159 6.98861C78.4129 7.46589 78.9621 8.07952 79.3636 8.82952C79.7652 9.57195 79.9659 10.4621 79.9659 11.5V23.2727H75.375V20.8523H75.2386C74.9583 21.3977 74.5833 21.8788 74.1136 22.2954C73.6439 22.7045 73.0796 23.0265 72.4205 23.2613C71.7614 23.4886 71 23.6023 70.1364 23.6023ZM71.5227 20.2613C72.2349 20.2613 72.8636 20.1212 73.4091 19.8409C73.9546 19.553 74.3826 19.1666 74.6932 18.6818C75.0038 18.1969 75.1591 17.6477 75.1591 17.0341V15.1818C75.0076 15.2803 74.7992 15.3712 74.5341 15.4545C74.2765 15.5303 73.9849 15.6023 73.6591 15.6704C73.3333 15.731 73.0076 15.7879 72.6818 15.8409C72.3561 15.8863 72.0606 15.928 71.7955 15.9659C71.2273 16.0492 70.7311 16.1818 70.3068 16.3636C69.8826 16.5454 69.553 16.7916 69.3182 17.1023C69.0833 17.4053 68.9659 17.7841 68.9659 18.2386C68.9659 18.8977 69.2046 19.4015 69.6818 19.75C70.1667 20.0909 70.7803 20.2613 71.5227 20.2613ZM93.0057 5.81816V9.45452H82.4943V5.81816H93.0057ZM84.8807 1.63634H89.7216V17.9091C89.7216 18.356 89.7898 18.7045 89.9261 18.9545C90.0625 19.1969 90.2519 19.3674 90.4943 19.4659C90.7443 19.5644 91.0322 19.6136 91.358 19.6136C91.5852 19.6136 91.8125 19.5947 92.0398 19.5568C92.2671 19.5113 92.4413 19.4773 92.5625 19.4545L93.3239 23.0568C93.0814 23.1326 92.7405 23.2197 92.3011 23.3182C91.8617 23.4242 91.3277 23.4886 90.6989 23.5113C89.5322 23.5568 88.5095 23.4015 87.6307 23.0454C86.7595 22.6894 86.0814 22.1363 85.5966 21.3863C85.1117 20.6363 84.8731 19.6894 84.8807 18.5454V1.63634ZM103.926 23.6136C102.131 23.6136 100.585 23.25 99.2898 22.5227C98.0019 21.7879 97.0095 20.75 96.3125 19.4091C95.6155 18.0606 95.2671 16.4659 95.2671 14.625C95.2671 12.8295 95.6155 11.2538 96.3125 9.89771C97.0095 8.54164 97.9905 7.48483 99.2557 6.72725C100.528 5.96967 102.021 5.59089 103.733 5.59089C104.884 5.59089 105.956 5.77649 106.949 6.14771C107.949 6.51134 108.82 7.06058 109.563 7.79543C110.313 8.53028 110.896 9.45452 111.313 10.5682C111.729 11.6742 111.938 12.9697 111.938 14.4545V15.7841H97.1989V12.7841H107.381C107.381 12.0871 107.229 11.4697 106.926 10.9318C106.623 10.3939 106.203 9.97346 105.665 9.67043C105.134 9.35983 104.517 9.20452 103.813 9.20452C103.078 9.20452 102.426 9.37498 101.858 9.71589C101.297 10.0492 100.858 10.5 100.54 11.0682C100.222 11.6288 100.059 12.2538 100.051 12.9432V15.7954C100.051 16.6591 100.21 17.4053 100.528 18.0341C100.854 18.6629 101.313 19.1477 101.903 19.4886C102.494 19.8295 103.195 20 104.006 20C104.544 20 105.036 19.9242 105.483 19.7727C105.93 19.6212 106.313 19.3939 106.631 19.0909C106.949 18.7879 107.191 18.4166 107.358 17.9773L111.835 18.2727C111.608 19.3485 111.142 20.2879 110.438 21.0909C109.741 21.8863 108.839 22.5076 107.733 22.9545C106.634 23.3939 105.366 23.6136 103.926 23.6136ZM125.491 29.8182C124.878 29.8182 124.302 29.7689 123.764 29.6704C123.234 29.5795 122.795 29.4621 122.446 29.3182L123.537 25.7045C124.105 25.8788 124.616 25.9735 125.071 25.9886C125.533 26.0038 125.931 25.8977 126.264 25.6704C126.605 25.4432 126.882 25.0568 127.094 24.5113L127.378 23.7727L121.116 5.81816H126.207L129.821 18.6363H130.003L133.651 5.81816H138.776L131.991 25.1591C131.666 26.0985 131.223 26.9166 130.662 27.6136C130.109 28.3182 129.408 28.8598 128.56 29.2386C127.711 29.625 126.688 29.8182 125.491 29.8182ZM148.577 23.6136C146.812 23.6136 145.285 23.2386 143.997 22.4886C142.717 21.731 141.728 20.678 141.031 19.3295C140.334 17.9735 139.986 16.4015 139.986 14.6136C139.986 12.8106 140.334 11.2348 141.031 9.88634C141.728 8.53028 142.717 7.47725 143.997 6.72725C145.285 5.96967 146.812 5.59089 148.577 5.59089C150.342 5.59089 151.865 5.96967 153.145 6.72725C154.433 7.47725 155.425 8.53028 156.122 9.88634C156.819 11.2348 157.168 12.8106 157.168 14.6136C157.168 16.4015 156.819 17.9735 156.122 19.3295C155.425 20.678 154.433 21.731 153.145 22.4886C151.865 23.2386 150.342 23.6136 148.577 23.6136ZM148.599 19.8636C149.402 19.8636 150.073 19.6363 150.611 19.1818C151.149 18.7197 151.554 18.0909 151.827 17.2954C152.107 16.5 152.247 15.5947 152.247 14.5795C152.247 13.5644 152.107 12.6591 151.827 11.8636C151.554 11.0682 151.149 10.4394 150.611 9.97725C150.073 9.51513 149.402 9.28407 148.599 9.28407C147.789 9.28407 147.107 9.51513 146.554 9.97725C146.009 10.4394 145.596 11.0682 145.315 11.8636C145.043 12.6591 144.906 13.5644 144.906 14.5795C144.906 15.5947 145.043 16.5 145.315 17.2954C145.596 18.0909 146.009 18.7197 146.554 19.1818C147.107 19.6363 147.789 19.8636 148.599 19.8636ZM171.509 15.8409V5.81816H176.349V23.2727H171.702V20.1023H171.52C171.126 21.125 170.471 21.9469 169.554 22.5682C168.645 23.1894 167.535 23.5 166.224 23.5C165.058 23.5 164.031 23.2348 163.145 22.7045C162.259 22.1742 161.565 21.4204 161.065 20.4432C160.573 19.4659 160.323 18.2954 160.315 16.9318V5.81816H165.156V16.0682C165.164 17.0985 165.44 17.9129 165.986 18.5113C166.531 19.1098 167.262 19.4091 168.179 19.4091C168.762 19.4091 169.308 19.2765 169.815 19.0113C170.323 18.7386 170.732 18.3371 171.043 17.8068C171.361 17.2765 171.516 16.6212 171.509 15.8409ZM180.222 23.2727V5.81816H184.915V8.86361H185.097C185.415 7.78028 185.949 6.9621 186.699 6.40907C187.449 5.84846 188.313 5.56816 189.29 5.56816C189.532 5.56816 189.794 5.58331 190.074 5.61361C190.354 5.64392 190.6 5.68558 190.813 5.73861V10.0341C190.585 9.96589 190.271 9.90528 189.869 9.85225C189.468 9.79922 189.1 9.77271 188.767 9.77271C188.055 9.77271 187.419 9.92801 186.858 10.2386C186.305 10.5416 185.866 10.9659 185.54 11.5113C185.222 12.0568 185.063 12.6856 185.063 13.3977V23.2727H180.222ZM200.722 29.8182V5.81816H205.494V8.74998H205.71C205.922 8.28028 206.229 7.80301 206.631 7.31816C207.04 6.82574 207.57 6.41664 208.222 6.09089C208.881 5.75755 209.699 5.59089 210.676 5.59089C211.949 5.59089 213.123 5.92422 214.199 6.59089C215.275 7.24998 216.134 8.24619 216.778 9.57952C217.422 10.9053 217.744 12.5682 217.744 14.5682C217.744 16.5151 217.43 18.1591 216.801 19.5C216.18 20.8333 215.331 21.8447 214.256 22.5341C213.188 23.2159 211.991 23.5568 210.665 23.5568C209.725 23.5568 208.926 23.4015 208.267 23.0909C207.616 22.7803 207.081 22.3901 206.665 21.9204C206.248 21.4432 205.93 20.9621 205.71 20.4773H205.563V29.8182H200.722ZM205.46 14.5454C205.46 15.5833 205.604 16.4886 205.892 17.2613C206.18 18.0341 206.597 18.6363 207.142 19.0682C207.688 19.4924 208.35 19.7045 209.131 19.7045C209.919 19.7045 210.585 19.4886 211.131 19.0568C211.676 18.6174 212.089 18.0113 212.369 17.2386C212.657 16.4583 212.801 15.5606 212.801 14.5454C212.801 13.5379 212.661 12.6515 212.381 11.8863C212.1 11.1212 211.688 10.5227 211.142 10.0909C210.597 9.65907 209.926 9.44316 209.131 9.44316C208.343 9.44316 207.676 9.65149 207.131 10.0682C206.593 10.4848 206.18 11.0757 205.892 11.8409C205.604 12.606 205.46 13.5076 205.46 14.5454ZM225.813 -2.28882e-05V23.2727H220.972V-2.28882e-05H225.813ZM234.668 23.6023C233.554 23.6023 232.562 23.4091 231.69 23.0227C230.819 22.6288 230.13 22.0492 229.622 21.2841C229.122 20.5113 228.872 19.5492 228.872 18.3977C228.872 17.428 229.05 16.6136 229.406 15.9545C229.762 15.2954 230.247 14.7651 230.861 14.3636C231.474 13.9621 232.171 13.6591 232.952 13.4545C233.74 13.25 234.565 13.106 235.429 13.0227C236.444 12.9166 237.262 12.8182 237.884 12.7273C238.505 12.6288 238.955 12.4848 239.236 12.2954C239.516 12.106 239.656 11.8257 239.656 11.4545V11.3863C239.656 10.6666 239.429 10.1098 238.974 9.71589C238.527 9.32195 237.891 9.12498 237.065 9.12498C236.194 9.12498 235.501 9.31816 234.986 9.70452C234.471 10.0833 234.13 10.5606 233.963 11.1363L229.486 10.7727C229.713 9.7121 230.16 8.79543 230.827 8.02271C231.493 7.2424 232.353 6.64392 233.406 6.22725C234.467 5.80301 235.694 5.59089 237.088 5.59089C238.058 5.59089 238.986 5.70452 239.872 5.9318C240.766 6.15907 241.558 6.51134 242.247 6.98861C242.944 7.46589 243.493 8.07952 243.895 8.82952C244.296 9.57195 244.497 10.4621 244.497 11.5V23.2727H239.906V20.8523H239.77C239.49 21.3977 239.115 21.8788 238.645 22.2954C238.175 22.7045 237.611 23.0265 236.952 23.2613C236.293 23.4886 235.531 23.6023 234.668 23.6023ZM236.054 20.2613C236.766 20.2613 237.395 20.1212 237.94 19.8409C238.486 19.553 238.914 19.1666 239.224 18.6818C239.535 18.1969 239.69 17.6477 239.69 17.0341V15.1818C239.539 15.2803 239.33 15.3712 239.065 15.4545C238.808 15.5303 238.516 15.6023 238.19 15.6704C237.865 15.731 237.539 15.7879 237.213 15.8409C236.887 15.8863 236.592 15.928 236.327 15.9659C235.759 16.0492 235.262 16.1818 234.838 16.3636C234.414 16.5454 234.084 16.7916 233.849 17.1023C233.615 17.4053 233.497 17.7841 233.497 18.2386C233.497 18.8977 233.736 19.4015 234.213 19.75C234.698 20.0909 235.312 20.2613 236.054 20.2613ZM253.094 13.1818V23.2727H248.253V5.81816H252.866V8.89771H253.071C253.457 7.88255 254.105 7.07952 255.014 6.48861C255.923 5.89013 257.026 5.59089 258.321 5.59089C259.533 5.59089 260.59 5.85604 261.491 6.38634C262.393 6.91664 263.094 7.67422 263.594 8.65907C264.094 9.63634 264.344 10.803 264.344 12.1591V23.2727H259.503V13.0227C259.51 11.9545 259.238 11.1212 258.685 10.5227C258.132 9.91664 257.37 9.61361 256.401 9.61361C255.749 9.61361 255.173 9.75377 254.673 10.0341C254.181 10.3144 253.795 10.7235 253.514 11.2613C253.241 11.7916 253.101 12.4318 253.094 13.1818ZM277.443 5.81816V9.45452H266.932V5.81816H277.443ZM269.318 1.63634H274.159V17.9091C274.159 18.356 274.227 18.7045 274.364 18.9545C274.5 19.1969 274.689 19.3674 274.932 19.4659C275.182 19.5644 275.47 19.6136 275.795 19.6136C276.023 19.6136 276.25 19.5947 276.477 19.5568C276.705 19.5113 276.879 19.4773 277 19.4545L277.761 23.0568C277.519 23.1326 277.178 23.2197 276.739 23.3182C276.299 23.4242 275.765 23.4886 275.136 23.5113C273.97 23.5568 272.947 23.4015 272.068 23.0454C271.197 22.6894 270.519 22.1363 270.034 21.3863C269.549 20.6363 269.311 19.6894 269.318 18.5454V1.63634ZM295.889 23.6136C294.101 23.6136 292.563 23.2348 291.276 22.4773C289.995 21.7121 289.01 20.6515 288.321 19.2954C287.639 17.9394 287.298 16.3788 287.298 14.6136C287.298 12.8257 287.643 11.2576 288.332 9.90907C289.029 8.55301 290.018 7.49619 291.298 6.73861C292.579 5.97346 294.101 5.59089 295.866 5.59089C297.389 5.59089 298.723 5.8674 299.866 6.42043C301.01 6.97346 301.916 7.74998 302.582 8.74998C303.249 9.74998 303.616 10.9242 303.685 12.2727H299.116C298.988 11.4015 298.647 10.7007 298.094 10.1704C297.548 9.63255 296.832 9.36361 295.946 9.36361C295.196 9.36361 294.541 9.56816 293.98 9.97725C293.427 10.3788 292.995 10.9659 292.685 11.7386C292.374 12.5113 292.219 13.4469 292.219 14.5454C292.219 15.6591 292.37 16.606 292.673 17.3863C292.984 18.1666 293.42 18.7613 293.98 19.1704C294.541 19.5795 295.196 19.7841 295.946 19.7841C296.499 19.7841 296.995 19.6704 297.435 19.4432C297.882 19.2159 298.249 18.8863 298.537 18.4545C298.832 18.0151 299.026 17.4886 299.116 16.875H303.685C303.609 18.2083 303.245 19.3826 302.594 20.3977C301.95 21.4053 301.06 22.1932 299.923 22.7613C298.787 23.3295 297.442 23.6136 295.889 23.6136ZM311.761 23.6023C310.648 23.6023 309.655 23.4091 308.784 23.0227C307.913 22.6288 307.223 22.0492 306.716 21.2841C306.216 20.5113 305.966 19.5492 305.966 18.3977C305.966 17.428 306.144 16.6136 306.5 15.9545C306.856 15.2954 307.341 14.7651 307.955 14.3636C308.568 13.9621 309.265 13.6591 310.045 13.4545C310.833 13.25 311.659 13.106 312.523 13.0227C313.538 12.9166 314.356 12.8182 314.977 12.7273C315.598 12.6288 316.049 12.4848 316.33 12.2954C316.61 12.106 316.75 11.8257 316.75 11.4545V11.3863C316.75 10.6666 316.523 10.1098 316.068 9.71589C315.621 9.32195 314.985 9.12498 314.159 9.12498C313.288 9.12498 312.595 9.31816 312.08 9.70452C311.564 10.0833 311.223 10.5606 311.057 11.1363L306.58 10.7727C306.807 9.7121 307.254 8.79543 307.92 8.02271C308.587 7.2424 309.447 6.64392 310.5 6.22725C311.561 5.80301 312.788 5.59089 314.182 5.59089C315.152 5.59089 316.08 5.70452 316.966 5.9318C317.86 6.15907 318.652 6.51134 319.341 6.98861C320.038 7.46589 320.587 8.07952 320.989 8.82952C321.39 9.57195 321.591 10.4621 321.591 11.5V23.2727H317V20.8523H316.864C316.583 21.3977 316.208 21.8788 315.739 22.2954C315.269 22.7045 314.705 23.0265 314.045 23.2613C313.386 23.4886 312.625 23.6023 311.761 23.6023ZM313.148 20.2613C313.86 20.2613 314.489 20.1212 315.034 19.8409C315.58 19.553 316.008 19.1666 316.318 18.6818C316.629 18.1969 316.784 17.6477 316.784 17.0341V15.1818C316.633 15.2803 316.424 15.3712 316.159 15.4545C315.902 15.5303 315.61 15.6023 315.284 15.6704C314.958 15.731 314.633 15.7879 314.307 15.8409C313.981 15.8863 313.686 15.928 313.42 15.9659C312.852 16.0492 312.356 16.1818 311.932 16.3636C311.508 16.5454 311.178 16.7916 310.943 17.1023C310.708 17.4053 310.591 17.7841 310.591 18.2386C310.591 18.8977 310.83 19.4015 311.307 19.75C311.792 20.0909 312.405 20.2613 313.148 20.2613ZM325.347 23.2727V5.81816H330.04V8.86361H330.222C330.54 7.78028 331.074 6.9621 331.824 6.40907C332.574 5.84846 333.438 5.56816 334.415 5.56816C334.657 5.56816 334.919 5.58331 335.199 5.61361C335.479 5.64392 335.725 5.68558 335.938 5.73861V10.0341C335.71 9.96589 335.396 9.90528 334.994 9.85225C334.593 9.79922 334.225 9.77271 333.892 9.77271C333.18 9.77271 332.544 9.92801 331.983 10.2386C331.43 10.5416 330.991 10.9659 330.665 11.5113C330.347 12.0568 330.188 12.6856 330.188 13.3977V23.2727H325.347ZM345.582 23.6136C343.787 23.6136 342.241 23.25 340.946 22.5227C339.658 21.7879 338.666 20.75 337.969 19.4091C337.272 18.0606 336.923 16.4659 336.923 14.625C336.923 12.8295 337.272 11.2538 337.969 9.89771C338.666 8.54164 339.647 7.48483 340.912 6.72725C342.185 5.96967 343.677 5.59089 345.389 5.59089C346.541 5.59089 347.613 5.77649 348.605 6.14771C349.605 6.51134 350.476 7.06058 351.219 7.79543C351.969 8.53028 352.552 9.45452 352.969 10.5682C353.385 11.6742 353.594 12.9697 353.594 14.4545V15.7841H338.855V12.7841H349.037C349.037 12.0871 348.885 11.4697 348.582 10.9318C348.279 10.3939 347.859 9.97346 347.321 9.67043C346.791 9.35983 346.173 9.20452 345.469 9.20452C344.734 9.20452 344.082 9.37498 343.514 9.71589C342.954 10.0492 342.514 10.5 342.196 11.0682C341.878 11.6288 341.715 12.2538 341.707 12.9432V15.7954C341.707 16.6591 341.866 17.4053 342.185 18.0341C342.51 18.6629 342.969 19.1477 343.56 19.4886C344.151 19.8295 344.851 20 345.662 20C346.2 20 346.692 19.9242 347.139 19.7727C347.586 19.6212 347.969 19.3939 348.287 19.0909C348.605 18.7879 348.848 18.4166 349.014 17.9773L353.491 18.2727C353.264 19.3485 352.798 20.2879 352.094 21.0909C351.397 21.8863 350.495 22.5076 349.389 22.9545C348.291 23.3939 347.022 23.6136 345.582 23.6136ZM46.2117 69.2727L41.4617 51.8182H46.3594L49.0639 63.5454H49.223L52.0412 51.8182H56.848L59.7117 63.4773H59.8594L62.5185 51.8182H67.4048L62.6662 69.2727H57.5412L54.5412 58.2954H54.3253L51.3253 69.2727H46.2117ZM69.9872 69.2727V51.8182H74.8281V69.2727H69.9872ZM72.419 49.5682C71.6993 49.5682 71.0819 49.3295 70.5668 48.8522C70.0592 48.3674 69.8054 47.7879 69.8054 47.1136C69.8054 46.4469 70.0592 45.875 70.5668 45.3977C71.0819 44.9129 71.6993 44.6704 72.419 44.6704C73.1387 44.6704 73.7524 44.9129 74.26 45.3977C74.7751 45.875 75.0327 46.4469 75.0327 47.1136C75.0327 47.7879 74.7751 48.3674 74.26 48.8522C73.7524 49.3295 73.1387 49.5682 72.419 49.5682ZM87.9901 51.8182V55.4545H77.4787V51.8182H87.9901ZM79.8651 47.6363H84.706V63.9091C84.706 64.356 84.7742 64.7045 84.9105 64.9545C85.0469 65.1969 85.2363 65.3674 85.4787 65.4659C85.7287 65.5644 86.0166 65.6136 86.3423 65.6136C86.5696 65.6136 86.7969 65.5947 87.0242 65.5568C87.2514 65.5113 87.4257 65.4773 87.5469 65.4545L88.3082 69.0568C88.0658 69.1326 87.7249 69.2197 87.2855 69.3182C86.8461 69.4242 86.312 69.4886 85.6832 69.5113C84.5166 69.5568 83.4939 69.4015 82.6151 69.0454C81.7439 68.6894 81.0658 68.1363 80.581 67.3863C80.0961 66.6363 79.8575 65.6894 79.8651 64.5454V47.6363ZM96.3594 59.1818V69.2727H91.5185V46H96.223V54.8977H96.4276C96.8215 53.8674 97.4579 53.0606 98.3367 52.4772C99.2154 51.8863 100.318 51.5909 101.643 51.5909C102.856 51.5909 103.912 51.856 104.814 52.3863C105.723 52.9091 106.428 53.6629 106.928 54.6477C107.435 55.625 107.685 56.7954 107.678 58.1591V69.2727H102.837V59.0227C102.844 57.9469 102.572 57.1098 102.018 56.5113C101.473 55.9129 100.708 55.6136 99.723 55.6136C99.0639 55.6136 98.4806 55.7538 97.973 56.0341C97.473 56.3144 97.0791 56.7235 96.7912 57.2613C96.5109 57.7916 96.367 58.4318 96.3594 59.1818ZM133.416 56.7954L128.984 57.0682C128.909 56.6894 128.746 56.3485 128.496 56.0454C128.246 55.7348 127.916 55.4886 127.507 55.3068C127.106 55.1174 126.625 55.0227 126.064 55.0227C125.314 55.0227 124.681 55.1818 124.166 55.5C123.651 55.8106 123.393 56.2272 123.393 56.75C123.393 57.1666 123.56 57.5189 123.893 57.8068C124.227 58.0947 124.799 58.3257 125.609 58.5L128.768 59.1363C130.465 59.4848 131.731 60.0454 132.564 60.8182C133.397 61.5909 133.814 62.606 133.814 63.8636C133.814 65.0076 133.477 66.0113 132.803 66.875C132.136 67.7386 131.219 68.4129 130.053 68.8977C128.893 69.375 127.556 69.6136 126.041 69.6136C123.731 69.6136 121.89 69.1326 120.518 68.1704C119.155 67.2007 118.356 65.8826 118.121 64.2159L122.882 63.9659C123.026 64.6704 123.375 65.2083 123.928 65.5795C124.481 65.9432 125.189 66.125 126.053 66.125C126.901 66.125 127.583 65.9621 128.098 65.6363C128.621 65.303 128.886 64.875 128.893 64.3523C128.886 63.9129 128.7 63.553 128.337 63.2727C127.973 62.9848 127.412 62.7651 126.655 62.6136L123.632 62.0113C121.928 61.6704 120.659 61.0795 119.825 60.2386C119 59.3977 118.587 58.3257 118.587 57.0227C118.587 55.9015 118.89 54.9356 119.496 54.125C120.109 53.3144 120.969 52.6894 122.075 52.25C123.189 51.8106 124.492 51.5909 125.984 51.5909C128.189 51.5909 129.924 52.0568 131.189 52.9886C132.462 53.9204 133.204 55.1894 133.416 56.7954ZM136.862 69.2727V51.8182H141.476V54.8977H141.68C142.044 53.875 142.65 53.0682 143.499 52.4772C144.347 51.8863 145.362 51.5909 146.544 51.5909C147.741 51.5909 148.76 51.8901 149.601 52.4886C150.442 53.0795 151.002 53.8826 151.283 54.8977H151.464C151.821 53.8977 152.464 53.0985 153.396 52.5C154.336 51.8939 155.446 51.5909 156.726 51.5909C158.355 51.5909 159.677 52.1098 160.692 53.1477C161.714 54.178 162.226 55.6401 162.226 57.5341V69.2727H157.396V58.4886C157.396 57.5189 157.139 56.7916 156.624 56.3068C156.108 55.8219 155.464 55.5795 154.692 55.5795C153.813 55.5795 153.127 55.8598 152.635 56.4204C152.143 56.9735 151.896 57.7045 151.896 58.6136V69.2727H147.203V58.3863C147.203 57.5303 146.957 56.8485 146.464 56.3409C145.98 55.8333 145.339 55.5795 144.544 55.5795C144.006 55.5795 143.521 55.7159 143.089 55.9886C142.665 56.2538 142.328 56.6288 142.078 57.1136C141.828 57.5909 141.703 58.1515 141.703 58.7954V69.2727H136.862ZM171.027 69.6023C169.913 69.6023 168.921 69.4091 168.05 69.0227C167.179 68.6288 166.489 68.0492 165.982 67.2841C165.482 66.5113 165.232 65.5492 165.232 64.3977C165.232 63.428 165.41 62.6136 165.766 61.9545C166.122 61.2954 166.607 60.7651 167.22 60.3636C167.834 59.9621 168.531 59.6591 169.311 59.4545C170.099 59.25 170.925 59.106 171.788 59.0227C172.804 58.9166 173.622 58.8182 174.243 58.7273C174.864 58.6288 175.315 58.4848 175.595 58.2954C175.875 58.106 176.016 57.8257 176.016 57.4545V57.3863C176.016 56.6666 175.788 56.1098 175.334 55.7159C174.887 55.3219 174.25 55.125 173.425 55.125C172.554 55.125 171.86 55.3182 171.345 55.7045C170.83 56.0833 170.489 56.5606 170.322 57.1363L165.845 56.7727C166.072 55.7121 166.519 54.7954 167.186 54.0227C167.853 53.2424 168.713 52.6439 169.766 52.2272C170.826 51.803 172.054 51.5909 173.447 51.5909C174.417 51.5909 175.345 51.7045 176.232 51.9318C177.125 52.1591 177.917 52.5113 178.607 52.9886C179.304 53.4659 179.853 54.0795 180.254 54.8295C180.656 55.5719 180.857 56.4621 180.857 57.5V69.2727H176.266V66.8523H176.129C175.849 67.3977 175.474 67.8788 175.004 68.2954C174.535 68.7045 173.97 69.0265 173.311 69.2613C172.652 69.4886 171.891 69.6023 171.027 69.6023ZM172.413 66.2613C173.125 66.2613 173.754 66.1212 174.3 65.8409C174.845 65.553 175.273 65.1666 175.584 64.6818C175.894 64.1969 176.05 63.6477 176.05 63.0341V61.1818C175.898 61.2803 175.69 61.3712 175.425 61.4545C175.167 61.5303 174.875 61.6023 174.55 61.6704C174.224 61.731 173.898 61.7879 173.572 61.8409C173.247 61.8863 172.951 61.928 172.686 61.9659C172.118 62.0492 171.622 62.1818 171.197 62.3636C170.773 62.5454 170.444 62.7916 170.209 63.1023C169.974 63.4053 169.857 63.7841 169.857 64.2386C169.857 64.8977 170.095 65.4015 170.572 65.75C171.057 66.0909 171.671 66.2613 172.413 66.2613ZM184.612 69.2727V51.8182H189.305V54.8636H189.487C189.805 53.7803 190.339 52.9621 191.089 52.4091C191.839 51.8485 192.703 51.5682 193.68 51.5682C193.923 51.5682 194.184 51.5833 194.464 51.6136C194.745 51.6439 194.991 51.6856 195.203 51.7386V56.0341C194.976 55.9659 194.661 55.9053 194.26 55.8523C193.858 55.7992 193.491 55.7727 193.158 55.7727C192.446 55.7727 191.809 55.928 191.249 56.2386C190.696 56.5416 190.256 56.9659 189.93 57.5113C189.612 58.0568 189.453 58.6856 189.453 59.3977V69.2727H184.612ZM207.865 51.8182V55.4545H197.354V51.8182H207.865ZM199.74 47.6363H204.581V63.9091C204.581 64.356 204.649 64.7045 204.786 64.9545C204.922 65.1969 205.111 65.3674 205.354 65.4659C205.604 65.5644 205.892 65.6136 206.217 65.6136C206.445 65.6136 206.672 65.5947 206.899 65.5568C207.126 65.5113 207.301 65.4773 207.422 65.4545L208.183 69.0568C207.941 69.1326 207.6 69.2197 207.161 69.3182C206.721 69.4242 206.187 69.4886 205.558 69.5113C204.392 69.5568 203.369 69.4015 202.49 69.0454C201.619 68.6894 200.941 68.1363 200.456 67.3863C199.971 66.6363 199.732 65.6894 199.74 64.5454V47.6363ZM218.695 76.1818C217.126 76.1818 215.782 75.9659 214.661 75.5341C213.547 75.1098 212.661 74.5303 212.001 73.7954C211.342 73.0606 210.914 72.2348 210.717 71.3182L215.195 70.7159C215.331 71.0644 215.547 71.3901 215.842 71.6932C216.138 71.9962 216.528 72.2386 217.013 72.4204C217.505 72.6098 218.104 72.7045 218.808 72.7045C219.861 72.7045 220.729 72.4469 221.411 71.9318C222.1 71.4242 222.445 70.5719 222.445 69.375V66.1818H222.24C222.028 66.6666 221.71 67.125 221.286 67.5568C220.861 67.9886 220.316 68.3409 219.649 68.6136C218.982 68.8863 218.187 69.0227 217.263 69.0227C215.952 69.0227 214.759 68.7197 213.683 68.1136C212.615 67.5 211.763 66.5644 211.126 65.3068C210.498 64.0416 210.183 62.4432 210.183 60.5113C210.183 58.5341 210.505 56.8826 211.149 55.5568C211.793 54.231 212.649 53.2386 213.717 52.5795C214.793 51.9204 215.971 51.5909 217.251 51.5909C218.229 51.5909 219.047 51.7576 219.706 52.0909C220.365 52.4166 220.895 52.8257 221.297 53.3182C221.706 53.803 222.02 54.2803 222.24 54.75H222.422V51.8182H227.229V69.4432C227.229 70.928 226.865 72.1704 226.138 73.1704C225.411 74.1704 224.403 74.9204 223.115 75.4204C221.835 75.928 220.361 76.1818 218.695 76.1818ZM218.797 65.3863C219.577 65.3863 220.236 65.1932 220.774 64.8068C221.32 64.4129 221.736 63.8523 222.024 63.125C222.32 62.3901 222.467 61.5113 222.467 60.4886C222.467 59.4659 222.323 58.5795 222.036 57.8295C221.748 57.0719 221.331 56.4848 220.786 56.0682C220.24 55.6515 219.577 55.4432 218.797 55.4432C218.001 55.4432 217.331 55.6591 216.786 56.0909C216.24 56.5151 215.827 57.106 215.547 57.8636C215.267 58.6212 215.126 59.4962 215.126 60.4886C215.126 61.4962 215.267 62.3674 215.547 63.1023C215.835 63.8295 216.248 64.3939 216.786 64.7954C217.331 65.1894 218.001 65.3863 218.797 65.3863ZM236.058 69.6023C234.945 69.6023 233.952 69.4091 233.081 69.0227C232.21 68.6288 231.52 68.0492 231.013 67.2841C230.513 66.5113 230.263 65.5492 230.263 64.3977C230.263 63.428 230.441 62.6136 230.797 61.9545C231.153 61.2954 231.638 60.7651 232.251 60.3636C232.865 59.9621 233.562 59.6591 234.342 59.4545C235.13 59.25 235.956 59.106 236.82 59.0227C237.835 58.9166 238.653 58.8182 239.274 58.7273C239.895 58.6288 240.346 58.4848 240.626 58.2954C240.907 58.106 241.047 57.8257 241.047 57.4545V57.3863C241.047 56.6666 240.82 56.1098 240.365 55.7159C239.918 55.3219 239.282 55.125 238.456 55.125C237.585 55.125 236.892 55.3182 236.376 55.7045C235.861 56.0833 235.52 56.5606 235.354 57.1363L230.876 56.7727C231.104 55.7121 231.551 54.7954 232.217 54.0227C232.884 53.2424 233.744 52.6439 234.797 52.2272C235.857 51.803 237.085 51.5909 238.479 51.5909C239.448 51.5909 240.376 51.7045 241.263 51.9318C242.157 52.1591 242.948 52.5113 243.638 52.9886C244.335 53.4659 244.884 54.0795 245.286 54.8295C245.687 55.5719 245.888 56.4621 245.888 57.5V69.2727H241.297V66.8523H241.161C240.88 67.3977 240.505 67.8788 240.036 68.2954C239.566 68.7045 239.001 69.0265 238.342 69.2613C237.683 69.4886 236.922 69.6023 236.058 69.6023ZM237.445 66.2613C238.157 66.2613 238.786 66.1212 239.331 65.8409C239.876 65.553 240.304 65.1666 240.615 64.6818C240.926 64.1969 241.081 63.6477 241.081 63.0341V61.1818C240.929 61.2803 240.721 61.3712 240.456 61.4545C240.198 61.5303 239.907 61.6023 239.581 61.6704C239.255 61.731 238.929 61.7879 238.604 61.8409C238.278 61.8863 237.982 61.928 237.717 61.9659C237.149 62.0492 236.653 62.1818 236.229 62.3636C235.804 62.5454 235.475 62.7916 235.24 63.1023C235.005 63.4053 234.888 63.7841 234.888 64.2386C234.888 64.8977 235.126 65.4015 235.604 65.75C236.089 66.0909 236.702 66.2613 237.445 66.2613ZM249.643 69.2727V51.8182H254.337V54.8636H254.518C254.837 53.7803 255.371 52.9621 256.121 52.4091C256.871 51.8485 257.734 51.5682 258.712 51.5682C258.954 51.5682 259.215 51.5833 259.496 51.6136C259.776 51.6439 260.022 51.6856 260.234 51.7386V56.0341C260.007 55.9659 259.693 55.9053 259.291 55.8523C258.89 55.7992 258.522 55.7727 258.189 55.7727C257.477 55.7727 256.84 55.928 256.28 56.2386C255.727 56.5416 255.287 56.9659 254.962 57.5113C254.643 58.0568 254.484 58.6856 254.484 59.3977V69.2727H249.643ZM268.357 69.5568C267.031 69.5568 265.83 69.2159 264.754 68.5341C263.686 67.8447 262.838 66.8333 262.209 65.5C261.588 64.1591 261.277 62.5151 261.277 60.5682C261.277 58.5682 261.599 56.9053 262.243 55.5795C262.887 54.2462 263.743 53.25 264.811 52.5909C265.887 51.9242 267.065 51.5909 268.345 51.5909C269.322 51.5909 270.137 51.7576 270.788 52.0909C271.447 52.4166 271.978 52.8257 272.379 53.3182C272.788 53.803 273.099 54.2803 273.311 54.75H273.459V46H278.288V69.2727H273.516V66.4773H273.311C273.084 66.9621 272.762 67.4432 272.345 67.9204C271.936 68.3901 271.402 68.7803 270.743 69.0909C270.091 69.4015 269.296 69.5568 268.357 69.5568ZM269.891 65.7045C270.671 65.7045 271.33 65.4924 271.868 65.0682C272.413 64.6363 272.83 64.0341 273.118 63.2613C273.413 62.4886 273.561 61.5833 273.561 60.5454C273.561 59.5076 273.417 58.606 273.129 57.8409C272.841 57.0757 272.425 56.4848 271.879 56.0682C271.334 55.6515 270.671 55.4432 269.891 55.4432C269.095 55.4432 268.425 55.6591 267.879 56.0909C267.334 56.5227 266.921 57.1212 266.641 57.8863C266.36 58.6515 266.22 59.5379 266.22 60.5454C266.22 61.5606 266.36 62.4583 266.641 63.2386C266.929 64.0113 267.341 64.6174 267.879 65.0568C268.425 65.4886 269.095 65.7045 269.891 65.7045ZM290.223 69.6136C288.428 69.6136 286.882 69.25 285.587 68.5227C284.299 67.7879 283.306 66.75 282.609 65.4091C281.912 64.0606 281.564 62.4659 281.564 60.625C281.564 58.8295 281.912 57.2538 282.609 55.8977C283.306 54.5416 284.287 53.4848 285.553 52.7272C286.825 51.9697 288.318 51.5909 290.03 51.5909C291.181 51.5909 292.253 51.7765 293.246 52.1477C294.246 52.5113 295.117 53.0606 295.859 53.7954C296.609 54.5303 297.193 55.4545 297.609 56.5682C298.026 57.6742 298.234 58.9697 298.234 60.4545V61.7841H283.496V58.7841H293.678C293.678 58.0871 293.526 57.4697 293.223 56.9318C292.92 56.3939 292.5 55.9735 291.962 55.6704C291.431 55.3598 290.814 55.2045 290.109 55.2045C289.375 55.2045 288.723 55.375 288.155 55.7159C287.594 56.0492 287.155 56.5 286.837 57.0682C286.518 57.6288 286.356 58.2538 286.348 58.9432V61.7954C286.348 62.6591 286.507 63.4053 286.825 64.0341C287.151 64.6629 287.609 65.1477 288.2 65.4886C288.791 65.8295 289.492 66 290.303 66C290.84 66 291.333 65.9242 291.78 65.7727C292.227 65.6212 292.609 65.3939 292.928 65.0909C293.246 64.7879 293.488 64.4166 293.655 63.9773L298.132 64.2727C297.905 65.3485 297.439 66.2879 296.734 67.0909C296.037 67.8863 295.136 68.5076 294.03 68.9545C292.931 69.3939 291.662 69.6136 290.223 69.6136ZM306.234 59.1818V69.2727H301.393V51.8182H306.007V54.8977H306.212C306.598 53.8826 307.246 53.0795 308.155 52.4886C309.064 51.8901 310.166 51.5909 311.462 51.5909C312.674 51.5909 313.731 51.856 314.632 52.3863C315.534 52.9166 316.234 53.6742 316.734 54.6591C317.234 55.6363 317.484 56.803 317.484 58.1591V69.2727H312.643V59.0227C312.651 57.9545 312.378 57.1212 311.825 56.5227C311.272 55.9166 310.511 55.6136 309.541 55.6136C308.89 55.6136 308.314 55.7538 307.814 56.0341C307.322 56.3144 306.935 56.7235 306.655 57.2613C306.382 57.7916 306.242 58.4318 306.234 59.1818Z" fill="#393E46"/>
</svg>
