<svg width="232" height="56" viewBox="0 0 232 56" fill="none" xmlns="http://www.w3.org/2000/svg">
<path d="M50.6924 5.38336H10.7773C7.79831 5.38336 5.38336 7.79831 5.38336 10.7773V44.759C5.38336 47.738 7.79831 50.153 10.7773 50.153H50.6924C53.6714 50.153 56.0863 47.738 56.0863 44.759V10.7773C56.0863 7.79831 53.6714 5.38336 50.6924 5.38336Z" fill="#4ECCA3"/>
<path d="M24.1777 28.0636C28.7001 29.6381 29.0351 24.3116 30.8106 23.6416C23.9767 22.5696 23.4072 25.2831 23.7757 27.5276C24.5462 26.3216 26.0202 25.0486 28.7336 24.3451C27.6951 24.6801 25.2497 25.9531 24.1777 28.0636Z" fill="white"/>
<path d="M23.0387 25.2161C23.0722 23.8091 23.2732 21.8996 23.2732 21.8996C23.2732 21.8996 23.4742 23.8091 23.5077 25.2161C24.2447 24.9146 24.8142 23.3401 24.8142 21.3971C24.8142 19.2532 23.2732 17.5447 23.2732 17.5447C23.2732 17.5447 21.7322 19.2867 21.7322 21.3971C21.7322 23.3401 22.3017 24.9146 23.0387 25.2161Z" fill="white"/>
<path d="M33.5576 16.1712C30.3081 16.1712 27.3266 17.5447 25.2162 19.7222C25.3167 20.0237 25.3837 20.3252 25.4172 20.6267C27.3936 18.3822 30.3081 16.9417 33.5241 16.9417C39.554 16.9417 44.4115 21.7992 44.4115 27.7956C44.4115 33.792 39.554 38.6495 33.5576 38.6495C27.9296 38.6495 23.2732 34.328 22.7707 28.8341C21.6987 26.7236 19.2867 25.4506 18.2482 25.1491C20.9617 25.8526 22.4357 27.1256 23.2062 28.3316C23.5747 26.0871 23.0052 23.3401 16.1712 24.4456C17.8462 25.0821 18.2147 29.8056 22.0337 29.0686C22.6367 34.8975 27.5946 39.4535 33.5911 39.4535C39.9895 39.4535 45.2155 34.2275 45.2155 27.8291C45.2155 21.4307 39.9895 16.1712 33.5576 16.1712Z" fill="white"/>
<path d="M72.5148 21.6285C73.5301 21.6285 74.4373 21.8166 75.2364 22.1926C76.0356 22.5686 76.6513 23.1139 77.0838 23.8284L75.1095 25.3232C74.3574 24.4395 73.4455 23.9976 72.3738 23.9976C71.7345 23.9976 71.2034 24.1386 70.7803 24.4207C70.3573 24.7027 70.1458 25.06 70.1458 25.4924C70.1458 26.4325 71.0201 27.0718 72.7687 27.4102C74.4796 27.7298 75.6877 28.1999 76.3928 28.8204C77.0979 29.4409 77.4504 30.3246 77.4504 31.4715C77.4504 32.7688 76.9568 33.7888 75.9697 34.5315C74.9826 35.2743 73.6617 35.655 72.0072 35.6738C70.7662 35.6738 69.7463 35.4811 68.9471 35.0956C68.148 34.7102 67.457 34.1132 66.8742 33.3047L68.792 31.7253C69.8073 32.7782 70.8885 33.3047 72.0354 33.3047C72.7875 33.3047 73.4268 33.1543 73.9532 32.8534C74.4796 32.5526 74.7429 32.1389 74.7429 31.6125C74.7429 30.6912 73.8968 30.0518 72.2046 29.6947C70.3244 29.3186 69.0599 28.8157 68.4113 28.1858C67.7626 27.5559 67.4382 26.7428 67.4382 25.7462C67.4382 24.5053 67.9177 23.5135 68.8766 22.7708C69.8355 22.028 71.0483 21.6473 72.5148 21.6285ZM87.2369 21.6285C89.1735 21.6285 90.5649 22.4558 91.411 24.1104C91.8435 23.3207 92.4357 22.7096 93.1878 22.2772C93.9399 21.8447 94.7578 21.6285 95.6415 21.6285C99.007 21.6285 100.699 23.5651 100.718 27.4384V35.3353H98.1798V27.7486C98.1798 26.4324 97.9448 25.4782 97.4747 24.886C97.0047 24.2937 96.2808 23.9976 95.3031 23.9976C94.1561 23.9976 93.3006 24.3454 92.7366 25.0411C92.1725 25.7368 91.8905 26.6956 91.8905 27.9178V35.3353H89.3522V28.1434C89.3522 26.5641 89.1266 25.4782 88.6753 24.886C88.2241 24.2937 87.5096 23.9976 86.5319 23.9976C85.4789 23.9976 84.6376 24.4018 84.0077 25.2103C83.3777 26.0188 83.0629 27.0435 83.0629 28.2845V35.3353H80.5246V21.9669H82.8936V24.054H82.95C83.2321 23.3959 83.7914 22.8271 84.6281 22.3477C85.4648 21.8682 86.3344 21.6285 87.2369 21.6285ZM109.912 21.6285C111.605 21.6285 112.944 22.0139 113.931 22.7847C114.918 23.5556 115.44 24.6274 115.497 25.9999V33.1635C115.497 33.8404 115.534 34.5643 115.609 35.3352H113.353C113.297 34.7335 113.269 34.0567 113.269 33.3046H113.212C112.629 34.1695 111.957 34.7806 111.196 35.1378C110.434 35.495 109.546 35.6736 108.53 35.6736C107.158 35.6736 106.044 35.307 105.188 34.5737C104.333 33.8404 103.905 32.8721 103.905 31.6688C103.905 30.1458 104.544 28.9941 105.823 28.2139C107.101 27.4336 108.906 27.0434 111.238 27.0434H113.128V26.564C113.128 25.6615 112.831 24.9517 112.239 24.4346C111.647 23.9175 110.871 23.659 109.912 23.659C109.198 23.659 108.573 23.7671 108.037 23.9834C107.501 24.1996 106.866 24.5992 106.133 25.182L104.61 23.6027C106.058 22.3241 107.825 21.6661 109.912 21.6285ZM106.443 31.4714C106.443 32.9192 107.402 33.6431 109.32 33.6431C110.467 33.6431 111.384 33.2999 112.07 32.6137C112.756 31.9274 113.109 30.9356 113.128 29.6382V28.9049H111.689C110.035 28.9049 108.747 29.1165 107.825 29.5395C106.904 29.9626 106.443 30.6065 106.443 31.4714ZM125.791 21.6285C126.261 21.6285 126.637 21.6849 126.919 21.7977L126.806 24.5334C126.317 24.4018 125.894 24.336 125.537 24.336C123.036 24.336 121.767 25.7274 121.73 28.5101V35.3353H119.191V21.9669H121.73V24.0258H121.786C122.124 23.3113 122.67 22.7331 123.422 22.2913C124.174 21.8494 124.963 21.6285 125.791 21.6285ZM133.152 18.2159L133.152 21.9669H136.79V24.1668H133.152V30.5971C133.152 31.462 133.274 32.1296 133.518 32.5996C133.763 33.0696 134.28 33.3046 135.07 33.3046C135.822 33.3046 136.423 33.173 136.875 32.9098V35.2225C136.386 35.4857 135.615 35.6361 134.562 35.6737C133.547 35.6737 132.762 35.5186 132.207 35.2083C131.652 34.8981 131.248 34.4657 130.994 33.911C130.74 33.3563 130.614 32.4867 130.614 31.3022V24.1668H127.68V21.9669H130.614V18.2159L133.152 18.2159ZM146.21 21.6285C147.169 21.6285 148.062 21.8259 148.889 22.2207C149.717 22.6156 150.375 23.1703 150.864 23.8847H150.92V21.9669H153.458V35.3353C153.439 37.3095 152.763 38.9264 151.428 40.1862C150.093 41.446 148.335 42.0853 146.154 42.104C143.39 42.104 141.209 41.3049 139.61 39.7068L141.331 37.5633C142.666 39.0111 144.264 39.735 146.125 39.735C147.724 39.735 148.922 39.326 149.721 38.5081C150.52 37.6902 150.92 36.5762 150.92 35.166V33.1354H150.835C150.384 33.9251 149.731 34.5174 148.875 34.9122C148.02 35.307 147.131 35.5045 146.21 35.5045C144.255 35.5045 142.637 34.8511 141.359 33.5443C140.081 32.2376 139.432 30.6253 139.413 28.7075C139.432 26.564 140.076 24.8529 141.345 23.5745C142.614 22.296 144.236 21.6472 146.21 21.6285ZM142.121 28.6511C142.121 29.986 142.511 31.0578 143.291 31.8663C144.071 32.6747 145.148 33.0978 146.52 33.1354C147.874 33.1354 148.941 32.7312 149.721 31.9227C150.501 31.1142 150.901 30.0236 150.92 28.6511C150.92 27.2598 150.52 26.141 149.721 25.2949C148.922 24.4488 147.846 24.0164 146.492 23.9976C145.157 23.9976 144.095 24.4394 143.305 25.3231C142.515 26.2068 142.121 27.3161 142.121 28.6511ZM162.653 21.6285C164.345 21.6285 165.684 22.0139 166.671 22.7847C167.659 23.5556 168.18 24.6274 168.237 25.9999V33.1635C168.237 33.8404 168.274 34.5643 168.35 35.3352H166.093C166.037 34.7335 166.009 34.0567 166.009 33.3046H165.952C165.369 34.1695 164.697 34.7806 163.936 35.1378C163.174 35.495 162.286 35.6736 161.271 35.6736C159.898 35.6736 158.784 35.307 157.928 34.5737C157.073 33.8404 156.645 32.8721 156.645 31.6688C156.645 30.1458 157.284 28.9941 158.563 28.2139C159.842 27.4336 161.646 27.0434 163.978 27.0434H165.868V26.564C165.868 25.6615 165.572 24.9517 164.979 24.4346C164.387 23.9175 163.611 23.659 162.653 23.659C161.938 23.659 161.313 23.7671 160.777 23.9834C160.241 24.1996 159.607 24.5992 158.873 25.182L157.35 23.6027C158.798 22.3241 160.565 21.6661 162.653 21.6285ZM159.183 31.4714C159.183 32.9192 160.142 33.6431 162.06 33.6431C163.207 33.6431 164.124 33.2999 164.81 32.6137C165.496 31.9274 165.849 30.9356 165.868 29.6382V28.9049H164.429C162.775 28.9049 161.487 29.1165 160.565 29.5395C159.644 29.9626 159.183 30.6065 159.183 31.4714ZM178.531 21.6285C179.001 21.6285 179.377 21.6849 179.659 21.7977L179.546 24.5334C179.057 24.4018 178.634 24.336 178.277 24.336C175.776 24.336 174.507 25.7274 174.47 28.5101V35.3353H171.931V21.9669H174.47V24.0258H174.526C174.865 23.3113 175.41 22.7331 176.162 22.2913C176.914 21.8494 177.704 21.6285 178.531 21.6285ZM195.255 14.0136L195.255 35.3353H192.717V33.4175H192.661C192.172 34.1319 191.509 34.6866 190.672 35.0814C189.836 35.4763 188.947 35.6737 188.007 35.6737C185.995 35.6549 184.364 34.9874 183.114 33.6713C181.864 32.3552 181.229 30.6817 181.21 28.6511C181.21 26.6017 181.835 24.9283 183.086 23.6309C184.336 22.3336 185.977 21.6661 188.007 21.6285C188.929 21.6285 189.812 21.8259 190.658 22.2208C191.504 22.6156 192.172 23.1703 192.661 23.8848H192.717V14.0136H195.255ZM183.918 28.6511C183.918 30.0237 184.322 31.1376 185.131 31.9932C185.939 32.8487 187.001 33.2858 188.317 33.3046C189.652 33.3046 190.719 32.8769 191.519 32.0214C192.318 31.1659 192.717 30.0425 192.717 28.6511C192.717 27.2785 192.322 26.1646 191.533 25.309C190.743 24.4535 189.662 24.0164 188.289 23.9976C186.973 23.9976 185.916 24.43 185.116 25.2949C184.317 26.1598 183.918 27.2786 183.918 28.6511ZM205.211 21.6285C207.261 21.6285 208.854 22.2724 209.992 23.5604C211.129 24.8484 211.707 26.6205 211.726 28.8767V29.5818H201.009C201.009 30.6723 201.446 31.5889 202.32 32.3316C203.195 33.0744 204.262 33.4551 205.521 33.4739C206.913 33.4739 208.135 32.8064 209.188 31.4714L211.106 32.938C209.677 34.7618 207.702 35.6737 205.183 35.6737C203.134 35.6737 201.484 35.0203 200.233 33.7136C198.983 32.4068 198.339 30.7192 198.301 28.6511C198.301 26.6581 198.945 24.9988 200.233 23.6732C201.521 22.3477 203.181 21.6661 205.211 21.6285ZM209.019 27.5512C208.981 26.2914 208.624 25.3278 207.947 24.6603C207.27 23.9929 206.339 23.6591 205.155 23.6591C204.365 23.6591 203.655 23.8518 203.025 24.2373C202.396 24.6227 201.902 25.121 201.545 25.7321C201.188 26.3431 201.009 26.9495 201.009 27.5512H209.019ZM221.767 21.6285C223.271 21.6285 224.451 22.0797 225.306 22.9822C226.162 23.8848 226.599 25.0975 226.618 26.6205V35.3353H224.079V27.3538C224.079 26.3196 223.811 25.5018 223.275 24.9001C222.74 24.2984 221.992 23.9976 221.033 23.9976C219.849 23.9976 218.932 24.3924 218.283 25.1821C217.635 25.9718 217.31 27.0248 217.31 28.3409V35.3353H214.772V21.9669H217.31V24.0258H217.367C217.724 23.2737 218.302 22.6861 219.101 22.2631C219.9 21.84 220.789 21.6285 221.767 21.6285Z" fill="#393E46"/>
</svg>
